PathFileType	4	(X/Y/Z)	s02c0401.trc
DataRate	CameraRate	NumFrames	NumMarkers	Units	OrigDataRate	OrigDataStartFrame	OrigNumFrames
200	200	6	50	mm	200	500	2000
Frame#	Time	racr			lacr			c7			jug			rlel			rdr			llel			ldr			s2			lic			ric			lasi			rasi			rpsi			lpsi			rgt			lgt			rth1			rth2			rth3			rth4			rlfc			rmfc			rsh1			rsh2			rsh3			rsh4			rlmal			rmmal			rtoe			rmt5			rmt1			lth1			lth2			lth4			lth3			llfc			lmfc			lsh1			lsh2			lsh3			lsh4			llmal			lmmal			lcal			ltoe			lmt5			SBIKE			LBIKE			RBIKE			
		X1	Y1	Z1	X2	Y2	Z2	X3	Y3	Z3	X4	Y4	Z4	X5	Y5	Z5	X6	Y6	Z6	X7	Y7	Z7	X8	Y8	Z8	X9	Y9	Z9	X10	Y10	Z10	X11	Y11	Z11	X12	Y12	Z12	X13	Y13	Z13	X14	Y14	Z14	X15	Y15	Z15	X16	Y16	Z16	X17	Y17	Z17	X18	Y18	Z18	X19	Y19	Z19	X20	Y20	Z20	X21	Y21	Z21	X22	Y22	Z22	X23	Y23	Z23	X24	Y24	Z24	X25	Y25	Z25	X26	Y26	Z26	X27	Y27	Z27	X28	Y28	Z28	X29	Y29	Z29	X30	Y30	Z30	X31	Y31	Z31	X32	Y32	Z32	X33	Y33	Z33	X34	Y34	Z34	X35	Y35	Z35	X36	Y36	Z36	X37	Y37	Z37	X38	Y38	Z38	X39	Y39	Z39	X40	Y40	Z40	X41	Y41	Z41	X42	Y42	Z42	X43	Y43	Z43	X44	Y44	Z44	X45	Y45	Z45	X46	Y46	Z46	X47	Y47	Z47	X48	Y48	Z48	X49	Y49	Z49	X50	Y50	Z50	
500	2.5000	487.114389	1316.956568	-134.523999	497.695088	1333.080069	-464.514081	495.449439	1345.369097	-306.484707	451.522080	1217.715066	-311.867775	566.717026	1057.526966	-70.621872	713.604898	892.631063	-135.455836	564.207253	1067.767711	-563.302460	704.089312	885.143339	-521.940213	-1.933895	1100.373741	-324.662570	141.402469	1107.648825	-462.922269	129.958937	1112.011627	-184.496286	182.139222	1070.897019	-441.549709	183.877141	1085.769653	-207.862107	19.258937	1142.036434	-283.948125	19.921069	1148.390888	-363.640785	115.967080	1034.206182	-145.702072	81.112732	1007.528579	-500.673470	202.332721	1010.840555	-143.496018	288.911338	996.923350	-149.989784	357.592733	950.137154	-128.411192	300.744132	1021.069403	-176.803267	473.285002	855.386096	-162.792597	462.664497	837.018065	-274.317080	458.377996	743.513162	-145.928991	440.971369	657.916350	-163.805625	387.174892	589.671216	-155.931181	448.816713	655.793587	-202.879707	321.629634	490.173693	-157.919556	327.831511	505.393468	-240.193706	534.979117	449.202740	-193.165522	428.017743	425.629401	-133.010087	453.181980	441.472362	-242.315546	187.399126	909.225026	-519.454181	256.999227	856.765110	-519.975862	283.440645	876.869842	-503.494400	289.175602	773.412595	-518.464187	343.066468	689.746005	-491.228228	344.704136	662.365794	-387.437106	293.462685	598.514384	-509.081042	262.842205	519.473440	-491.117844	194.277601	461.211135	-492.360338	281.239307	511.585090	-455.141315	121.028716	383.507165	-475.963854	143.012212	368.843141	-400.375371	44.087081	376.342371	-432.517121	258.808241	186.694085	-444.124302	160.529684	234.566155	-502.103712	-164.964663	857.777384	-315.470188	32.953168	82.011866	-515.287929	33.095189	82.056734	-115.169653	
501	2.5050	487.462123	1316.357681	-133.673363	498.706429	1333.148642	-463.608068	496.124507	1344.859828	-305.545179	452.109360	1217.188950	-311.130617	565.762060	1056.724127	-69.493577	713.395822	892.618626	-135.251997	564.136145	1067.825275	-563.467634	704.352955	885.442783	-521.874617	-1.848513	1100.799659	-324.617580	141.484372	1108.135160	-462.950275	130.252351	1111.976074	-184.427776	181.968170	1071.132352	-441.725147	184.181451	1085.917673	-208.070332	19.527163	1142.550154	-283.913618	20.905992	1148.715700	-363.715024	116.261547	1034.260647	-145.800543	80.928789	1007.973902	-500.794997	202.507349	1010.767199	-143.819972	289.048571	996.695640	-150.363737	357.652911	949.656966	-128.847215	300.969704	1020.669340	-177.262690	472.896170	854.457634	-163.615014	462.291735	836.311111	-274.878366	458.448797	742.784614	-146.380485	441.164842	657.055382	-164.196144	387.635947	588.901631	-156.146827	449.028688	655.024046	-203.198550	322.347529	489.074435	-157.903252	328.305726	504.338586	-240.223918	535.719377	448.027896	-193.217074	428.810147	424.615084	-132.996229	453.785989	440.302772	-242.315896	187.404193	909.771057	-519.489086	257.140982	857.469156	-519.903033	283.466639	877.562701	-503.308144	289.626266	774.289260	-518.570455	343.420300	690.573088	-491.026618	344.699185	663.064780	-387.168601	293.715655	599.385536	-508.958569	262.824415	520.353094	-490.935511	194.116852	462.318190	-492.381968	281.287636	512.486158	-455.010725	120.528754	384.677024	-476.140876	138.808104	372.215976	-398.761647	43.541812	377.447719	-432.567530	258.061263	187.522766	-443.988172	159.825742	235.531224	-502.073419	-164.936475	857.822907	-315.160794	32.961992	82.034364	-515.282701	33.081297	82.091630	-115.175156	
502	2.5100	487.806566	1315.780224	-132.857977	499.680179	1333.268872	-462.555157	496.746908	1344.382853	-304.626533	452.653590	1216.709457	-310.582006	565.329906	1056.063654	-68.332620	713.047524	892.583514	-135.383982	564.095252	1067.942702	-563.511494	704.480065	885.656596	-521.715053	-1.780212	1101.250574	-324.532461	141.514344	1108.590437	-462.941166	130.512609	1111.938587	-184.400260	181.829334	1071.406355	-441.932623	184.482593	1086.059720	-208.306375	19.777703	1142.967796	-283.894445	20.328764	1149.457116	-363.503123	116.613894	1034.306525	-145.889654	80.793282	1008.431759	-500.964379	202.692013	1010.831743	-144.033016	289.175561	996.485489	-150.754430	357.668084	949.248745	-129.311372	301.136769	1020.399074	-177.609452	472.646280	853.758746	-164.203985	461.821855	835.543781	-275.375929	458.478247	742.111261	-146.735726	441.464674	656.323360	-164.379906	388.107380	587.877849	-156.288706	449.221066	654.200147	-203.456628	322.692624	488.327568	-157.460475	328.745319	503.045902	-240.114424	536.410298	446.879032	-193.292778	429.594030	423.514033	-132.957385	454.381919	439.237588	-242.355422	187.440348	910.381540	-519.502400	257.340173	858.173811	-519.801492	283.573710	878.348963	-503.155661	289.932116	774.972316	-518.164810	343.763722	691.359856	-490.821495	344.716232	663.962299	-386.952442	293.962215	600.199288	-508.839371	262.811985	521.274974	-490.804975	193.963830	463.429553	-492.377850	281.317989	513.235611	-455.104272	120.016318	385.885141	-476.294004	138.318688	373.544754	-398.836030	42.960239	378.730513	-432.695276	257.515489	188.701121	-444.004981	159.250858	236.675237	-502.082334	-164.963627	857.807496	-315.417042	32.969873	82.027689	-515.288877	33.076968	82.081995	-115.173298	
503	2.5150	488.181682	1315.150438	-132.081156	500.707944	1333.364867	-461.452054	497.402348	1343.889748	-303.637715	453.163583	1216.298160	-309.922801	564.951322	1055.419710	-67.281281	712.892423	892.636159	-135.206897	564.051187	1068.128840	-563.412648	704.631427	885.912787	-521.589199	-1.713465	1101.702213	-324.506024	141.587118	1109.050127	-462.958797	130.675830	1111.821628	-184.503181	181.685049	1071.671733	-442.091819	184.757365	1086.227095	-208.564305	20.057242	1143.280647	-283.910708	21.263207	1149.793909	-363.546208	116.934812	1034.396107	-145.992829	80.620129	1008.924415	-501.118292	202.890162	1010.906172	-144.260787	289.331708	996.218350	-151.171839	357.693955	948.773838	-129.823072	301.332154	1020.096744	-178.038160	472.402569	852.986512	-164.769177	461.375549	834.683451	-275.821054	458.452145	741.361370	-147.141653	441.581622	655.442964	-164.736585	388.505702	586.995758	-156.419912	449.448543	653.409242	-203.761201	323.441500	486.958087	-157.637813	329.608275	501.889209	-240.260750	537.083104	445.748338	-193.388778	430.241048	422.486038	-132.875561	454.994954	438.032405	-242.266827	187.555012	910.912590	-519.468254	257.575846	858.889308	-519.644746	283.691164	879.217043	-502.992329	290.320802	775.796113	-518.041417	344.051703	692.209706	-490.562077	344.758791	664.813522	-386.689383	294.184098	601.030504	-508.690354	262.777246	522.205552	-490.706826	193.784304	464.515030	-492.436005	281.236723	514.138885	-454.943692	119.483947	387.087231	-476.445354	137.604140	374.808615	-398.838845	42.391556	379.882885	-432.728120	256.808567	189.794182	-443.969183	158.621985	237.840367	-502.125790	-164.938728	857.934646	-314.982355	32.975687	82.028513	-515.287041	33.087927	82.104305	-115.182949	
504	2.5200	488.509991	1314.558622	-131.318227	501.746070	1333.443114	-460.296974	497.983543	1343.430530	-302.770171	453.668484	1215.601102	-309.378515	564.532826	1054.785285	-66.129290	712.743570	892.703051	-135.106041	564.001195	1068.365318	-563.265040	704.816020	886.243466	-521.489194	-1.656917	1102.156686	-324.404385	141.631147	1109.537256	-463.008522	130.940166	1111.821316	-184.511157	181.516647	1071.930145	-442.266346	185.027956	1086.371930	-208.773879	20.277076	1143.592809	-283.849576	20.762118	1150.451942	-363.393063	117.242435	1034.484330	-146.068930	80.439787	1009.425777	-501.303713	203.067157	1010.955897	-144.530148	289.472750	995.953104	-151.596200	357.705071	948.309167	-130.315177	301.507609	1019.964325	-178.504224	472.075196	852.290039	-165.390147	460.877413	833.860744	-276.371440	458.363448	740.611630	-147.572912	442.903268	654.232096	-165.017086	388.930389	585.973019	-156.546676	449.530365	652.491608	-204.003167	324.094402	485.848610	-157.545210	329.966690	500.617691	-240.022834	537.728279	444.537743	-193.496165	431.013692	421.330483	-132.887243	455.577767	436.949955	-242.316351	187.697539	911.536415	-519.332950	257.802942	859.715241	-519.499849	283.860497	879.959089	-502.770906	290.877506	776.811588	-518.189165	344.424485	693.015892	-490.464158	344.755448	665.607211	-386.344203	294.425687	601.899615	-508.571185	262.752014	523.175929	-490.485519	193.601606	465.577433	-492.248926	280.684153	515.308512	-454.451574	118.850915	388.378880	-476.529306	137.070557	376.107645	-398.880004	41.872919	381.108389	-432.838798	256.178294	190.812879	-444.084148	157.983145	238.837988	-502.089522	-164.994363	857.746668	-315.342011	32.987428	82.041029	-515.297502	33.080467	82.079516	-115.165020	
505	2.5250	488.798114	1314.115835	-130.398596	502.800643	1333.490973	-459.227661	498.589132	1342.941321	-301.854696	454.148768	1215.130503	-308.774192	564.193720	1054.180149	-65.122515	712.601845	892.795870	-135.006877	563.954859	1068.606180	-563.075260	705.020247	886.596525	-521.405995	-1.612680	1102.622078	-324.382817	141.622342	1110.010519	-463.037718	131.135044	1111.789024	-184.518972	181.332170	1072.202631	-442.422176	185.288535	1086.538806	-208.946380	20.448683	1144.026876	-283.201679	21.024875	1150.946405	-363.326148	117.558712	1034.603454	-146.143138	80.284732	1009.864253	-501.520467	203.303645	1010.956143	-144.840343	289.643960	995.681283	-152.011394	357.929311	948.119578	-130.396229	301.639444	1019.768236	-178.935303	471.762635	851.474685	-165.965878	460.332111	832.873473	-276.829449	458.283035	739.749574	-147.976710	443.038125	653.412775	-165.217471	389.241526	584.945888	-156.629750	449.678980	651.573719	-204.232029	324.641929	484.774328	-157.188207	330.388881	499.280266	-239.928088	538.328137	443.473717	-193.629767	431.735488	420.184612	-132.731675	456.088277	435.697944	-242.218534	187.858457	912.183087	-519.231263	258.094769	860.511114	-519.300711	284.061606	880.847159	-502.567714	291.258466	777.533979	-517.729589	344.846718	693.797919	-490.300137	344.838424	666.550329	-386.098472	294.673926	602.762708	-508.420128	262.808370	524.153506	-490.430541	193.453341	466.845219	-492.310934	280.558711	516.201385	-454.185663	118.322152	389.619579	-476.672895	136.458225	377.301552	-398.934374	41.242966	382.338682	-432.859692	255.567202	192.012440	-444.020159	157.439076	240.021890	-502.072882	-164.938573	857.797784	-315.316947	32.976482	82.039940	-515.298986	33.076288	82.101433	-115.171701	
